HIERARCHY
ROOT Hips
{
	OFFSET	0.000000	0.000000	0.000000
	CHANNELS 6 Xposition Yposition Zposition Zrotation Xrotation Yrotation
	JOINT LeftUpLeg
	{
		OFFSET	10.375517	0.070054	-1.037171
		CHANNELS 3 Zrotation Xrotation Yrotation
		JOINT LeftLeg
		{
			OFFSET	0.016704	-38.676832	0.663765
			CHANNELS 3 Zrotation Xrotation Yrotation
			JOINT LeftFoot
			{
				OFFSET	0.110187	-36.174427	-0.332491
				CHANNELS 3 Zrotation Xrotation Yrotation
				JOINT LeftFootHeel
				{
					OFFSET	-0.322384	-5.304612	-2.321053
					CHANNELS 3 Zrotation Xrotation Yrotation
					End Site
					{
						OFFSET	0.000000	0.000000	13.213880
					}
				}
			}
		}
	}
	JOINT RightUpLeg
	{
		OFFSET	-10.375517	0.070054	-1.037171
		CHANNELS 3 Zrotation Xrotation Yrotation
		JOINT RightLeg
		{
			OFFSET	-0.016704	-38.676832	0.663765
			CHANNELS 3 Zrotation Xrotation Yrotation
			JOINT RightFoot
			{
				OFFSET	-0.110187	-36.174427	-0.332491
				CHANNELS 3 Zrotation Xrotation Yrotation
				JOINT RightFootHeel
				{
					OFFSET	0.322384	-5.304612	-2.321053
					CHANNELS 3 Zrotation Xrotation Yrotation
					End Site
					{
						OFFSET	0.000000	0.000000	13.213880
					}
				}
			}
		}
	}
	JOINT Spine
	{
		OFFSET	0.000000	11.683696	0.877014
		CHANNELS 3 Zrotation Xrotation Yrotation
		JOINT Spine1
		{
			OFFSET	0.000000	10.438763	-0.438501
			CHANNELS 3 Zrotation Xrotation Yrotation
			JOINT LeftShoulder
			{
				OFFSET	5.089296	28.582620	1.093691
				CHANNELS 3 Zrotation Xrotation Yrotation
				JOINT LeftArm
				{
					OFFSET	12.302820	0.054706	0.445122
					CHANNELS 3 Zrotation Xrotation Yrotation
					JOINT LeftForeArm
					{
						OFFSET	2.635072	-28.921202	0.907512
						CHANNELS 3 Zrotation Xrotation Yrotation
						JOINT LeftHand
						{
							OFFSET	1.766258	-25.604217	2.278504
							CHANNELS 3 Zrotation Xrotation Yrotation
							End Site
							{
								OFFSET	-1.490033	-7.801915	0.212894
							}
						}
					}
				}
			}
			JOINT RightShoulder
			{
				OFFSET	-5.089296	28.582620	1.093691
				CHANNELS 3 Zrotation Xrotation Yrotation
				JOINT RightArm
				{
					OFFSET	-12.302820	0.054706	0.445122
					CHANNELS 3 Zrotation Xrotation Yrotation
					JOINT RightForeArm
					{
						OFFSET	-2.635072	-28.921202	0.907512
						CHANNELS 3 Zrotation Xrotation Yrotation
						JOINT RightHand
						{
							OFFSET	-1.766258	-25.604217	2.278504
							CHANNELS 3 Zrotation Xrotation Yrotation
							End Site
							{
								OFFSET	1.490033	-7.801915	0.212894
							}
						}
					}
				}
			}
			JOINT Neck
			{
				OFFSET	0.000000	32.695639	-1.315537
				CHANNELS 3 Zrotation Xrotation Yrotation
				JOINT Head
				{
					OFFSET	0.000000	7.700518	2.192561
					CHANNELS 3 Zrotation Xrotation Yrotation
					End Site
					{
						OFFSET	0.000000	12.695452	-1.315537
					}
				}
			}
		}
	}
}
MOTION
Frames:    19
Frame Time: 0.016667
0.000000	81.799386	0.000000	-12.207745	12.018770	38.912777	5.114436	-22.892817	19.824516	2.375959	-4.260183	23.537056	1.663520	10.050093	6.586555	0.	0.	0.	9.017294	-18.504906	-7.722236	-3.165866	2.507640	15.070486	-2.531996	-0.270381	1.257527	0.	0.	0.	-0.000001	0.000002	-0.000004	-7.830534	13.884704	-1.465729	0.934023	-5.156603	-18.198589	31.947224	-54.270241	22.944815	-15.484487	-8.411441	-58.893970	15.827950	-10.359254	-45.054596	-3.967661	-2.802116	4.765614	6.706144	-20.558628	-19.268929	33.273476	-70.246544	3.517563	-35.637470	-6.121343	-48.545692	-8.104190	4.617609	7.041998	7.969698	5.102242	-6.664791	
0.032194	81.802041	0.031307	-12.207474	12.076969	38.822529	5.090727	-22.848791	19.628576	2.402205	-4.329036	23.702177	1.691682	10.065763	6.677888	0.	0.	0.	9.031074	-18.503836	-7.639904	-3.179861	2.470360	15.044731	-2.537499	-0.244920	1.295374	0.	0.	0.	-0.000002	0.000001	-0.000000	-7.749376	13.959969	-1.487442	0.974488	-5.198057	-18.171175	32.225574	-54.466038	22.766397	-15.411067	-8.225046	-59.153599	16.391582	-11.898387	-45.286041	-3.993860	-2.859011	4.712375	6.635133	-20.516520	-19.335249	32.714397	-70.510193	3.792348	-36.484486	-5.962742	-48.273922	-8.105960	4.534261	7.029593	7.740375	5.146533	-6.610386	
0.065254	81.810703	0.056137	-12.201689	12.181524	38.660625	5.059365	-22.844807	19.555136	2.440970	-4.362051	23.817108	1.700643	10.059677	6.775815	0.	0.	0.	9.023559	-18.544514	-7.505449	-3.185142	2.454645	15.062727	-2.543308	-0.218604	1.313400	0.	0.	0.	-0.000003	0.000002	-0.000002	-7.692806	14.001523	-1.392182	0.954470	-5.142501	-18.143927	32.684860	-54.481625	22.868734	-15.736839	-8.425542	-59.413643	17.445940	-13.849441	-45.272655	-4.057676	-2.898728	4.615978	6.575652	-20.523354	-19.396587	32.260029	-70.756927	4.247265	-37.382492	-5.955776	-47.946915	-8.122850	4.537904	6.914338	7.507968	5.159246	-6.478459	
0.093117	81.813668	0.075314	-12.194695	12.283523	38.530560	5.024148	-22.854544	19.491306	2.468718	-4.381552	23.908552	1.685316	10.044997	6.874867	0.	0.	0.	9.010461	-18.578329	-7.443354	-3.194837	2.428299	15.148767	-2.549785	-0.191696	1.302307	0.	0.	0.	0.000000	0.000000	0.000004	-7.640263	14.096887	-1.322424	0.947390	-5.039329	-18.059181	33.313793	-54.525936	23.389044	-16.397566	-8.769110	-60.041073	18.741772	-15.697881	-45.266811	-4.152272	-2.916195	4.564191	6.536778	-20.607271	-19.489153	31.834688	-70.966599	4.963261	-38.196671	-5.968856	-47.648643	-8.063263	4.558241	6.904062	7.254250	5.116901	-6.443488	
0.136324	81.818900	0.118529	-12.193339	12.385603	38.437458	4.985856	-22.874111	19.471235	2.492519	-4.362165	23.938763	1.655069	9.999907	6.954637	0.	0.	0.	8.996739	-18.606762	-7.477848	-3.221396	2.389319	15.295975	-2.548789	-0.173228	1.289861	0.	0.	0.	-0.000000	0.000001	0.000001	-7.570709	14.159019	-1.261474	0.868638	-5.038239	-17.999516	33.961205	-54.435165	24.093729	-17.207985	-9.004094	-61.146198	20.073423	-17.082155	-44.985527	-4.258575	-2.884269	4.492695	6.488587	-20.681971	-19.543768	31.417091	-71.184143	5.700387	-38.443642	-5.511670	-47.901970	-7.966129	4.582068	7.010592	6.985573	5.112662	-6.545631	
0.163419	81.818396	0.154781	-12.191054	12.490861	38.390686	4.938465	-22.937170	19.509811	2.510448	-4.307757	23.928881	1.648871	9.955081	6.958087	0.	0.	0.	8.958607	-18.658943	-7.501143	-3.276058	2.389975	15.382744	-2.520831	-0.185819	1.274894	0.	0.	0.	0.000002	0.000003	0.000007	-7.505195	14.210414	-1.155909	0.849989	-4.869265	-17.937965	34.715710	-54.598408	24.814312	-18.008896	-9.113886	-62.203285	20.985683	-17.844172	-44.500538	-4.390060	-2.871311	4.434288	6.475955	-20.683020	-19.682848	31.142551	-71.421066	6.306758	-39.116028	-5.486044	-47.697548	-7.828326	4.663161	7.094179	6.754501	5.121924	-6.664246	
0.181415	81.815935	0.187965	-12.195553	12.588220	38.363003	4.903752	-23.003803	19.586113	2.514492	-4.258698	23.885040	1.628851	9.913218	6.956691	0.	0.	0.	8.922229	-18.717329	-7.520893	-3.283109	2.402474	15.365439	-2.553968	-0.216710	1.304396	0.	0.	0.	-0.000001	0.000001	-0.000003	-7.430116	14.267835	-1.041957	0.805969	-4.702453	-17.922688	35.479729	-54.717209	25.274115	-18.827826	-9.251337	-62.639618	21.413960	-17.742123	-44.067585	-4.448960	-2.865134	4.456703	6.341486	-20.634893	-19.933451	31.141920	-71.775818	6.821858	-39.632980	-5.505839	-47.443481	-7.718869	4.818706	7.219124	6.571590	5.091093	-6.813667	
0.189499	81.816148	0.210739	-12.232381	12.655414	38.360222	4.908375	-23.063124	19.661110	2.503561	-4.246006	23.829376	1.611235	9.893154	6.961822	0.	0.	0.	8.919994	-18.781523	-7.530991	-3.274908	2.409697	15.355116	-2.647050	-0.230929	1.290236	0.	0.	0.	-0.000003	-0.000000	0.000001	-7.328061	14.329976	-0.945557	0.781476	-4.553653	-17.867867	35.835808	-54.973724	25.441767	-19.481352	-9.297616	-62.615379	21.614429	-17.361528	-43.647015	-4.529177	-2.923292	4.402644	6.316429	-20.545244	-20.092916	31.253546	-72.105759	7.341717	-39.984360	-5.546268	-47.165791	-7.654631	5.005473	7.347273	6.473316	5.038244	-6.949271	
0.194223	81.815334	0.226150	-12.273897	12.716308	38.374401	4.911213	-23.125637	19.704573	2.493400	-4.242735	23.788828	1.602661	9.883380	6.964311	0.	0.	0.	8.917686	-18.850822	-7.538674	-3.276547	2.405195	15.369744	-2.664203	-0.215682	1.255421	0.	0.	0.	-0.000000	0.000005	-0.000000	-7.209559	14.397084	-0.885422	0.763415	-4.421651	-17.818316	36.363613	-55.144588	25.663322	-20.225462	-9.322598	-62.110928	22.057898	-17.738457	-43.197651	-4.587075	-2.903503	4.444107	6.252154	-20.565668	-20.231569	31.228455	-72.443962	7.638702	-40.108158	-5.607681	-46.914032	-7.587225	5.223233	7.471386	6.360002	4.939632	-7.080126	
0.196647	81.810557	0.235229	-12.307163	12.780122	38.408783	4.893847	-23.191214	19.709686	2.484257	-4.248298	23.763369	1.606136	9.887950	6.959406	0.	0.	0.	8.898061	-18.924332	-7.555419	-3.278395	2.413856	15.360637	-2.707203	-0.218455	1.260716	0.	0.	0.	-0.000001	-0.000000	0.000003	-7.111460	14.480814	-0.891611	0.782786	-4.338634	-17.791742	36.728863	-55.355434	25.871033	-20.534002	-9.494566	-61.926579	22.610447	-19.659582	-42.163853	-4.609221	-2.942610	4.517766	6.127570	-20.624029	-20.358347	31.163784	-72.656342	7.869938	-40.216049	-5.665358	-46.762081	-7.530802	5.396149	7.606633	6.250790	4.855945	-7.193740	
0.197683	81.809618	0.237635	-12.346145	12.830293	38.412136	4.898573	-23.251696	19.728689	2.481821	-4.249783	23.756599	1.616166	9.905215	6.942462	0.	0.	0.	8.901814	-18.985685	-7.539598	-3.286346	2.445206	15.327527	-2.710687	-0.249690	1.286399	0.	0.	0.	-0.000000	-0.000001	0.000006	-6.990736	14.570962	-0.933596	0.783494	-4.299433	-17.767042	36.908577	-55.510460	25.995169	-20.639397	-9.838384	-62.214008	23.522667	-22.452938	-40.554264	-4.607792	-2.941788	4.610805	5.979576	-20.714058	-20.405874	31.101336	-72.827263	7.931953	-40.253998	-5.747020	-46.657520	-7.506447	5.584713	7.736988	6.110909	4.749238	-7.240521	
0.210704	81.810926	0.252148	-12.388952	12.885358	38.415878	4.902079	-23.320023	19.741385	2.490475	-4.219461	23.751825	1.592438	9.894551	6.940895	0.	0.	0.	8.909543	-19.045101	-7.554751	-3.292804	2.461715	15.332776	-2.715011	-0.277480	1.313153	0.	0.	0.	0.000001	0.000001	0.000001	-6.886981	14.679375	-0.968692	0.774032	-4.320845	-17.806658	37.210720	-55.576077	26.375578	-20.883436	-10.173222	-62.740227	24.935789	-25.461340	-38.693295	-4.571502	-3.085900	4.706512	5.897864	-20.752583	-20.327070	30.523802	-73.037216	7.430963	-40.095100	-5.771942	-46.505875	-7.434121	5.775998	7.787996	5.906540	4.629004	-7.190004	
0.224381	81.812263	0.265830	-12.433690	12.942898	38.419815	4.903227	-23.385614	19.758951	2.497447	-4.201018	23.742920	1.571191	9.883479	6.942050	0.	0.	0.	8.914949	-19.113152	-7.546132	-3.285903	2.470675	15.317109	-2.725762	-0.288080	1.337739	0.	0.	0.	-0.000000	0.000001	-0.000002	-6.797630	14.775892	-1.024766	0.775268	-4.370862	-17.855072	37.711792	-55.451908	27.152027	-21.542482	-10.457583	-63.387127	26.712845	-28.031633	-36.746208	-4.451324	-3.203195	4.759705	5.834113	-20.866819	-20.120956	29.586697	-73.275040	6.743313	-39.920170	-5.741087	-46.395515	-7.427579	5.933649	7.773473	5.777890	4.565331	-7.051033	
0.226913	81.811769	0.267059	-12.473577	12.994180	38.423351	4.903980	-23.443443	19.775072	2.497314	-4.207497	23.737907	1.571190	9.883480	6.942049	0.	0.	0.	8.918850	-19.175865	-7.529922	-3.285943	2.469365	15.291149	-2.725250	-0.288067	1.363725	0.	0.	0.	0.000002	0.000002	0.000001	-6.715477	14.886440	-1.147428	0.765587	-4.415261	-17.833483	38.438465	-55.229263	28.169449	-22.577976	-10.753683	-63.978268	27.526649	-28.667215	-36.034618	-4.361991	-3.321977	4.824013	5.773359	-21.003277	-19.893391	28.697767	-73.480141	6.241954	-39.992325	-5.746967	-46.273438	-7.423561	6.018904	7.797014	5.674931	4.559513	-6.923530	
0.221984	81.809753	0.260592	-12.486650	13.052724	38.372234	4.901101	-23.487989	19.842239	2.497139	-4.212427	23.733921	1.571191	9.883481	6.942052	0.	0.	0.	8.913966	-19.220631	-7.464542	-3.285978	2.468056	15.265016	-2.727051	-0.285999	1.385095	0.	0.	0.	-0.000003	0.000003	-0.000003	-6.713200	14.912301	-1.162351	0.764700	-4.317139	-17.836412	39.293392	-55.033871	29.151272	-23.626972	-11.045208	-64.432930	28.549652	-29.800547	-34.929726	-4.300447	-3.330342	4.755657	5.813776	-21.167229	-19.548527	27.693054	-73.685432	5.739028	-40.217609	-5.793685	-46.132004	-7.348535	6.200787	7.772802	5.565752	4.518520	-6.793692	
0.228686	81.813707	0.265201	-12.470730	13.126111	38.329441	4.851710	-23.518345	19.888388	2.501179	-4.229047	23.731350	1.571188	9.883481	6.942046	0.	0.	0.	8.872374	-19.261930	-7.415678	-3.285985	2.467768	15.259283	-2.732135	-0.281388	1.380069	0.	0.	0.	-0.000001	-0.000002	0.000000	-6.718434	15.000749	-1.175419	0.752693	-4.278243	-17.838623	40.049057	-54.933540	29.895956	-24.203959	-11.206647	-64.644119	28.673288	-31.097616	-34.594345	-4.301887	-3.428853	4.713892	5.903839	-21.276741	-19.264482	26.904268	-73.819962	5.254000	-40.457169	-6.053267	-45.910400	-7.352735	6.193414	7.755728	5.551616	4.569854	-6.725751	
0.233407	81.822970	0.271593	-12.425873	13.172618	38.293213	4.788661	-23.512535	19.911726	2.506864	-4.244817	23.733240	1.571189	9.883478	6.942054	0.	0.	0.	8.818756	-19.267227	-7.386906	-3.285985	2.467770	15.259285	-2.732135	-0.281387	1.380076	0.	0.	0.	-0.000001	-0.000000	0.000006	-6.749435	15.103333	-1.160843	0.748600	-4.227676	-17.874601	40.704620	-54.867687	30.389141	-24.686861	-11.497396	-65.172722	28.171940	-32.247887	-34.879547	-4.316675	-3.523505	4.710532	5.960979	-21.301685	-19.114225	26.175564	-74.081909	4.932860	-40.556309	-6.101700	-45.826080	-7.305274	6.318997	7.695764	5.475585	4.438768	-6.674383	
0.236744	81.829830	0.276095	-12.387847	13.198830	38.266777	4.739110	-23.497234	19.921312	2.513588	-4.259086	23.738653	1.571189	9.883480	6.942055	0.	0.	0.	8.779466	-19.262178	-7.368700	-3.285985	2.467770	15.259281	-2.732134	-0.281387	1.380072	0.	0.	0.	-0.000002	0.000002	-0.000001	-6.809500	15.224657	-1.133972	0.785852	-4.190919	-17.918297	41.332623	-54.794193	30.678112	-24.903179	-11.706260	-65.935150	28.108892	-33.224487	-34.395107	-4.231779	-3.565987	4.713459	5.869888	-21.357294	-19.099461	25.891182	-74.360519	4.891340	-40.581501	-6.116146	-45.691368	-7.222337	6.403175	7.711311	5.467033	4.431426	-6.740758	
0.237384	81.831002	0.277002	-12.385474	13.210107	38.262291	4.718485	-23.496674	19.904385	2.524149	-4.269850	23.755558	1.571189	9.883480	6.942050	0.	0.	0.	8.772432	-19.268919	-7.363363	-3.285983	2.467769	15.259283	-2.732134	-0.281389	1.380069	0.	0.	0.	0.000001	-0.000001	-0.000000	-6.829226	15.339719	-1.122352	0.804692	-4.201663	-17.960655	41.966396	-54.640373	30.825012	-25.135578	-11.840557	-66.410385	28.483034	-34.022858	-33.627388	-4.177282	-3.612875	4.699907	5.797074	-21.349184	-19.097569	25.835506	-74.696274	5.083308	-40.532551	-6.211357	-45.487476	-7.142569	6.464275	7.740777	5.428719	4.445912	-6.850434	
